<svg width="89" height="50" viewBox="0 0 89 50" fill="none" xmlns="http://www.w3.org/2000/svg">
<path d="M0.225632 24.8192C0.67691 25.2684 1.1282 25.7176 1.7299 25.9422C2.40683 26.2416 2.40685 26.616 2.03078 27.14C1.5795 27.8138 1.20341 28.4127 0.752136 29.0864C0.526497 29.4608 0.37606 29.8351 0.30085 30.2843C0.225639 31.0329 0.752136 31.5569 1.50427 31.4072C2.03077 31.3323 2.55727 31.1077 3.00854 30.8083C3.61025 30.2094 3.91111 30.5837 4.13675 31.1826C4.66325 32.6799 5.03931 34.252 4.81367 35.8241C4.4376 37.9203 5.94189 39.193 7.97266 38.5192C9.853 37.8454 11.0564 38.7438 12.1094 40.0164C13.1624 41.1394 14.0649 42.4869 14.5162 43.9842C14.8923 45.0323 14.8923 45.1071 13.7641 45.3317C10.229 46.0055 6.76923 46.9787 3.38461 48.3262C3.08376 48.4759 2.7077 48.476 2.40685 49C16.3214 49 30.6342 49.0749 45 49C59.2906 48.9251 75 49 88.5 49C87.8983 48.476 86.7214 47.7273 86.0444 47.5027C80.5538 45.706 74.8376 44.6579 69.1214 43.9093C68.3692 43.8344 68.1436 43.6099 68.3692 42.8612C69.0462 40.3159 69.5726 37.7705 69.7983 35.2252C69.8735 34.4766 70.0991 33.8028 70.3248 33.0542C70.5504 32.1558 70.5504 31.3323 70.1743 30.434C69.7231 29.3859 70.0991 28.3378 70.1743 27.2897C70.3248 23.846 71.7539 20.7767 73.1077 17.4827C73.6342 20.7767 73.935 23.9209 72.2051 26.8406C72.1299 26.9154 72.0547 27.0651 72.0547 27.14C71.6034 29.8351 70.8513 32.4553 71.6034 35.2252C71.6786 35.3749 71.6786 35.5995 71.9043 35.7492C72.2051 35.4498 72.1299 35.0006 72.3556 34.4017C72.3556 35.3749 72.3556 36.1236 72.3556 37.0968C72.8821 36.423 72.8068 35.7492 73.1077 35.0006C73.1077 35.8241 73.1077 36.3482 73.1077 36.9471C73.559 36.8722 73.4838 36.6476 73.4838 36.423C74.0103 33.7279 74.2359 31.1077 73.7094 28.4127C73.3333 26.616 73.8598 24.8193 74.0855 23.0974C74.6872 18.7554 74.612 14.4882 73.4086 10.2958C72.8068 7.97508 71.6786 5.95378 69.8735 4.38166C69.4974 4.0822 69.1214 3.70789 68.7453 3.55816C66.865 2.73467 65.1351 1.76146 63.3299 0.713375C62.4274 0.189334 61.2992 0.264192 60.2462 0.264192C54.5299 0.114466 48.7385 0.413909 43.0222 0.488772C38.6598 0.488772 34.2222 0.339042 29.8598 0.0395896C26.6256 -0.184999 23.4667 0.563649 20.4581 1.83632C19.3299 2.2855 18.5778 3.18384 17.9008 4.15705C15.1931 8.42424 12.8615 12.9909 10.2291 17.2581C9.77779 18.0067 9.32651 18.6805 8.80001 19.3543C8.27351 20.028 7.747 20.6269 6.76923 20.2526C6.69402 20.2526 6.54359 20.2526 6.46838 20.2526C5.56581 20.7018 4.73845 21.0012 3.98631 19.8783C3.76067 19.504 3.38461 19.9531 3.38461 20.3275C3.38461 21.0012 3.38462 21.675 3.45983 22.4236C3.53504 22.8728 3.38462 23.2471 3.15898 23.6963C2.63248 24.6695 1.95555 24.7444 1.05299 24.5198C0.676918 24.4449 0.300858 24.4449 0 24.6695C0.225639 24.4449 0.225632 24.5947 0.225632 24.8192ZM59.1932 30.0597C59.0427 32.1558 58.9675 34.1771 58.7419 36.2733C58.5162 38.2197 58.2154 40.1662 57.1624 41.9629C56.8615 42.4869 56.5607 42.6366 55.959 42.6366C53.7026 42.5618 51.4461 42.412 49.1897 42.412C44.3008 42.3372 39.412 42.412 34.5231 42.7115C34.147 42.7115 33.7709 42.6366 33.6957 42.2623C33.4701 41.4388 33.1692 40.6153 33.3196 39.717C33.7709 37.1716 34.3727 34.7012 34.2222 32.081C34.147 31.1826 34.3726 30.2842 34.5231 29.3859C35.1248 26.2416 36.1778 25.6427 39.2615 26.4662C42.8718 27.5143 46.5573 27.9635 50.3179 27.3646C52.8752 26.9903 55.4325 26.4662 57.8393 25.5679C58.5162 25.3433 58.8171 25.4181 58.8923 26.2416C58.9675 27.5143 59.118 28.787 59.1932 30.0597ZM14.9675 40.9897C13.5385 39.4924 12.1846 38.4443 10.4547 37.6957C10.2291 37.6208 10.0034 37.4711 10.0786 37.2465C10.2291 36.3481 10.0034 35.4498 10.7555 34.6263C11.6581 33.6531 12.5607 32.605 13.1624 31.4072C13.6137 30.434 14.2906 29.9099 15.1932 29.5356C16.0205 29.2362 16.7726 29.0864 17.6752 29.0864C20.2325 29.0864 22.8649 29.3859 25.4222 28.8618C25.7983 28.787 25.9487 29.0116 26.0239 29.311C26.2496 30.2094 26.4752 31.1077 26.3248 31.9312C26.0239 33.8028 26.4 35.5995 26.5504 37.4711C26.6256 38.5192 26.8513 39.4924 26.7761 40.5405C26.6256 42.1875 25.7231 43.3104 24.3692 43.535C22.4137 43.8344 20.4581 44.059 18.5026 44.3585C17.8256 44.4333 17.6752 44.2836 17.9761 43.6847C18.9538 41.2142 20.4581 39.2678 22.7897 37.9951C23.0906 37.8454 23.4667 37.6957 23.6923 37.2465C21.135 37.8454 19.1795 39.2678 17.3744 41.2142C17.4496 38.2946 18.5778 35.899 20.2325 33.8028C18.5026 35.0006 17.2239 36.5727 16.3214 38.5192C13.9145 34.7012 13.8393 34.6263 12.6359 34.1771C14.2154 36.1236 15.0427 38.2946 14.9675 40.9897ZM64.3829 31.4072C64.759 32.3804 65.0598 33.2788 65.4359 34.0274C66.9402 36.7973 66.4889 39.5672 65.3607 42.3372C65.135 42.7864 64.8342 43.2355 64.3077 43.1607C62.9538 43.0858 61.6 42.9361 59.9453 42.7864C61.3744 41.7383 61.9009 40.5405 62.1265 39.1181C62.4274 37.3214 62.8786 35.5995 63.4051 33.8777C63.706 33.129 63.7812 32.3056 64.3829 31.4072ZM30.7624 35.0006C31.1385 35.8241 30.988 36.423 30.8376 37.0219C30.4615 38.6689 30.0103 40.3159 30.612 42.0377C30.6872 42.2623 30.9128 42.6366 30.612 42.7115C30.1607 42.8612 30.2359 42.3372 30.1607 42.1126C29.2581 39.7918 30.1607 37.4711 30.7624 35.0006Z" fill="#127050"/>
</svg>
