<svg width="96" height="58" viewBox="0 0 96 58" fill="none" xmlns="http://www.w3.org/2000/svg">
<path d="M79.5428 0.240654C79.9462 0.882425 80.1882 1.5242 80.1075 2.24619C80.0269 3.20884 80.5916 3.4495 81.3983 3.28905C82.2857 3.12861 83.1731 3.0484 84.0605 3.0484C84.7058 3.0484 85.4319 3.12862 85.6739 3.85061C85.9159 4.57261 85.4319 4.97371 84.9479 5.37481C84.7059 5.53526 84.5445 5.77593 84.3025 5.93637C83.4151 6.49792 83.4151 6.57813 84.1412 7.30012C85.4319 8.50344 86.7227 9.54632 88.4168 10.1079C90.4336 10.7496 90.8369 12.8354 89.2235 14.2794C89.0621 14.4398 88.9008 14.5201 88.9008 14.7607C88.5781 15.8838 87.6907 15.964 86.884 15.5629C85.4319 14.8409 84.0605 15.1618 82.689 15.4827C81.5596 15.7234 80.4302 15.964 79.2201 15.964C78.7361 15.964 78.3327 16.1245 78.0101 16.4454C76.2353 17.6487 75.0252 19.2531 74.2991 21.2586C73.1697 24.1466 71.879 26.9543 70.0235 29.4412C69.3781 30.3236 68.5714 31.1258 67.6033 31.7676C67.1193 32.1687 66.8773 32.0083 66.8773 31.3665C66.8773 30.7247 66.8773 30.1632 66.7966 29.5214C66.2319 31.6072 65.3445 33.5325 64.5378 35.4578C64.1344 36.5007 63.8117 37.6238 63.8924 38.7469C64.0537 41.4744 63.7311 44.2019 63.4084 46.9295C63.247 48.1328 63.4084 49.2559 64.0537 50.2987C64.7798 51.5823 65.8285 52.0636 67.2806 51.9834C67.8453 51.9834 67.8454 51.7427 67.6033 51.3416C66.8773 50.1383 65.9899 49.0954 64.7798 48.3734C64.5378 48.213 64.2151 48.1328 63.8924 47.6515C65.8285 48.0526 67.1193 49.0954 68.4101 50.379C68.4101 48.3734 67.5227 46.8492 66.5546 45.325C67.7647 46.047 68.5714 47.0899 69.2168 48.3734C69.7008 47.6515 70.1848 47.0097 70.5882 46.2877C70.8302 45.9668 70.5075 45.7261 70.3462 45.5657C69.1361 44.3624 67.8454 43.4799 66.3932 42.6777C66.1512 42.5975 65.9092 42.5975 65.7479 42.036C69.6201 42.9986 72.6857 45.0844 75.3479 48.213C75.1865 43.7206 73.5731 40.1106 70.6689 36.7414C72.363 37.3831 74.2991 39.6293 76.9613 44.0415C78.0907 41.314 79.6235 38.9875 82.1243 37.3831C79.6235 40.3513 78.4134 43.7206 78.5748 47.8119C81.2369 44.9239 84.1412 42.9184 87.9327 41.9557C87.6907 42.4371 87.368 42.5173 87.0453 42.6777C83.1731 44.8437 80.5109 47.9723 78.9781 52.2241C78.6554 53.0263 78.8168 53.3472 79.7042 53.5076C84.8672 54.39 90.0302 55.5131 94.9512 57.4384C95.3546 57.5989 95.6773 57.7593 96 58C62.5 58 32 58 0 58C0.322689 57.5989 0.806692 57.0373 1.21005 56.8769C5.88905 55.2725 10.6487 54.1494 15.489 53.3472C16.6991 53.1065 17.9899 52.9461 19.2 52.7856C19.442 52.7856 19.684 52.7856 19.7647 52.4647C19.8453 52.2241 19.6033 52.1439 19.442 52.0636C18.958 51.7427 18.7966 51.2614 18.7159 50.7801C18.0706 47.9723 17.3445 45.1646 17.1832 42.2766C17.1025 41.4744 16.7798 40.7524 16.6185 39.9502C16.3764 38.9875 16.2958 38.1051 16.7798 37.2227C16.9411 36.9018 17.0218 36.5809 16.9411 36.1798C16.7798 32.4896 16.0538 28.8797 14.521 25.4301C12.9882 22.0608 12.9075 18.6916 14.3596 15.242C14.6823 14.4398 14.9243 13.6376 15.1664 12.7552C15.9731 10.1079 17.5059 8.18257 20.2487 7.21992C20.8134 7.05948 21.3781 6.73858 21.8622 6.33748C23.4756 4.8935 25.3311 4.73306 27.3479 4.81328C33.2369 5.13416 38.9647 6.17704 44.6117 7.94191C46.0638 8.42323 47.5159 8.58367 48.968 8.58367C50.9848 8.58367 52.7596 7.78146 54.3731 6.65836C55.0185 6.17703 55.7445 5.77593 56.4706 5.21439C58.4874 3.69018 60.5042 3.85061 62.6016 5.05393C64.0537 5.85615 65.3445 6.81881 67.0386 7.13969C68.9748 7.46058 71.2336 6.25726 71.879 4.33195C71.9596 4.25172 71.9596 4.09129 72.0403 4.01107C72.847 3.36929 73.5731 2.72751 72.847 1.44397C72.605 1.04287 73.2504 0.882425 73.6538 1.04287C74.2991 1.36375 74.8638 1.76485 75.5092 2.16596C75.9126 2.40662 76.3159 2.48684 76.8806 2.48684C78.5748 2.40662 78.5748 0.962656 79.1395 0C79.1395 0.240664 79.3008 0.240654 79.5428 0.240654ZM30.4134 28.3983C29.6874 29.361 29.042 30.1632 28.3159 30.9654C26.4605 32.8907 24.5243 34.816 23.4756 37.3029C22.9109 38.5865 22.5075 40.0304 21.8622 41.314C20.3294 44.2822 20.5714 47.2503 21.8622 50.2185C22.0235 50.6196 22.2655 50.9405 22.5882 51.1812C24.121 52.0636 25.7344 52.4647 27.5899 52.0636C28.1546 51.9032 28.2353 51.7427 27.9932 51.2614C27.8319 51.0207 27.5899 50.7801 27.3479 50.5394C26.2185 49.657 25.6537 48.4537 25.4924 47.0899C25.1697 45.2448 24.847 43.3195 24.0403 41.6349C22.9916 39.5491 23.7176 37.8644 24.7664 36.1798C25.1697 35.538 25.5731 34.9765 26.0571 34.4149C27.0252 33.3721 27.8319 32.1687 29.042 31.2863C29.1227 31.4468 29.1227 31.527 29.1227 31.527C28.3159 35.3776 28.5579 39.2282 28.8806 43.1591C29.042 45.325 29.4453 47.5712 30.4134 49.5768C31.1395 51.101 32.3496 51.6625 33.8823 51.5823C39.4487 51.3416 44.9344 51.101 50.5008 51.1812C51.8722 51.1812 53.2437 51.2614 54.6958 51.3416C55.0991 51.3416 55.5025 51.3416 55.6638 50.7801C56.0672 49.4965 56.3899 48.2932 56.1479 46.9295C55.8252 45.4855 55.4218 44.0415 55.3411 42.5975C55.1798 39.7897 55.4218 36.982 55.2605 34.0941C55.2605 33.6127 55.4218 33.5325 55.8252 33.6127C56.6319 33.6929 56.8739 34.1743 57.0353 34.8963C57.6 37.8645 57.9227 40.9129 58.6487 43.881C59.2134 46.1272 59.8588 48.4537 58.8907 50.7801C58.8907 50.8603 58.8101 50.9405 58.8101 51.101C58.8101 51.2614 58.8101 51.4218 59.0521 51.5021C59.2941 51.5823 59.3748 51.3416 59.4554 51.1812C59.8588 49.5768 60.2622 47.8921 59.8588 46.2877C58.9714 42.9184 58.4874 39.4689 57.842 36.0194C57.6 34.5754 56.7932 33.5325 55.4218 33.0512C52.2756 31.9281 49.0487 31.4467 45.7411 32.3292C43.2403 32.9709 40.8201 33.8534 38.158 33.4523C35.6571 33.1314 33.2369 32.6501 30.9781 31.527C30.3327 31.2061 30.0101 30.8852 30.2521 30.083C30.4134 29.5214 30.5748 29.0401 30.4134 28.3983ZM73.9764 52.7856C74.5411 52.8658 74.5411 52.545 74.3798 52.1439C74.0571 51.2614 73.6537 50.379 73.1697 49.4965C72.9277 49.0954 72.6857 49.0152 72.363 49.3361C71.6369 50.0581 71.0722 50.8603 70.6689 51.7427C70.5075 52.0636 70.5882 52.3043 70.9916 52.3043C71.9596 52.5449 72.9277 52.6252 73.9764 52.7856ZM70.1042 50.1383C70.6689 49.657 71.1529 49.1757 71.6369 48.935C72.4437 48.5339 72.363 48.0526 71.879 47.491C71.7176 47.3306 71.5563 47.0899 71.3949 46.9295C71.1529 46.6086 70.9109 46.6888 70.7495 47.0097C70.3462 47.9723 69.9428 48.935 70.1042 50.1383Z" fill="#127050"/>
</svg>
